/vscmnt/brussel_pixiu_data/_data_brussel/112/vsc11236/PredSimResults/SUBJ09opt3D/trackIG/worker_03.mot
version=1
nRows=11
nColumns=50
inDegrees=yes
endheader
                time	         pelvis_tilt	         pelvis_list	     pelvis_rotation	           pelvis_tx	           pelvis_ty	           pelvis_tz	       hip_flexion_r	     hip_adduction_r	      hip_rotation_r	        knee_angle_r	       ankle_angle_r	         mtp_angle_r	       hip_flexion_l	     hip_adduction_l	      hip_rotation_l	        knee_angle_l	       ankle_angle_l	         mtp_angle_l	    lumbar_extension	      lumbar_bending	     lumbar_rotation	 ercspn_r/activation	 intobl_r/activation	 extobl_r/activation	    abd_r/activation	    add_r/activation	hamstrings_r/activation	bifemsh_r/activation	glut_max_r/activation	iliopsoas_r/activation	rect_fem_r/activation	  vasti_r/activation	gastroc_r/activation	 soleus_r/activation	tib_ant_r/activation	 ercspn_l/activation	 intobl_l/activation	 extobl_l/activation	    abd_l/activation	    add_l/activation	hamstrings_l/activation	bifemsh_l/activation	glut_max_l/activation	iliopsoas_l/activation	rect_fem_l/activation	  vasti_l/activation	gastroc_l/activation	 soleus_l/activation	tib_ant_l/activation	
          1.59968973	         -2.23332778	         -0.39817909	          5.97309571	          1.27975178	          1.00389167	         -0.00774459	         22.35019903	         -1.28120948	         -9.86119368	         -1.51023005	          1.09020172	          0.22536516	         -8.94999914	         -2.47997090	        -12.44273274	        -13.60628318	          9.30286137	         27.44386175	        -14.26286992	         -3.01503037	         -6.45644200	          0.01266617	          0.19837188	          0.06060752	          0.00999999	          0.21280931	          0.02544057	          0.01000063	          0.01123190	          0.08457546	          0.03320564	          0.01686765	          0.01000000	          0.00999999	          0.27382692	          0.01000000	          0.00999999	          0.00999999	          0.06005358	          0.01000000	          0.01029718	          0.07706727	          0.03836267	          0.01000013	          0.01000018	          0.01000000	          0.22168364	          0.25225918	          0.00999999	
          1.61568663	         -2.34560039	         -0.37436417	          5.83088438	          1.29699964	          1.00187068	         -0.00610490	         21.56838480	         -1.09346742	        -10.06100095	         -1.59150426	          0.56782204	          0.20823422	         -9.52503026	         -2.68804174	        -13.13690828	        -14.22934213	          8.74910675	         28.73132876	        -13.72610259	         -2.59842081	         -6.56693445	          0.01000002	          0.20687341	          0.04785000	          0.02971404	          0.16801421	          0.02947969	          0.05230016	          0.00999999	          0.06677283	          0.02621605	          0.01331711	          0.01266616	          0.01266613	          0.30735277	          0.01000015	          0.01000000	          0.01266612	          0.04741266	          0.01266611	          0.03396795	          0.06084507	          0.03260144	          0.01000001	          0.01000000	          0.02367153	          0.20495891	          0.23744388	          0.00999999	
          1.63168352	         -2.44054701	         -0.41412901	          5.64292586	          1.31465951	          1.00025485	         -0.00437914	         20.71214517	         -0.85399921	        -10.37557402	         -1.56738672	         -0.21320664	          0.20142234	        -10.01064228	         -2.99288105	        -13.85566024	        -15.06420538	          7.99249760	         30.06759487	        -13.15392730	         -2.08644154	         -6.64650861	          0.01000000	          0.17040742	          0.03777786	          0.06512445	          0.13264823	          0.05072620	          0.04129129	          0.02090573	          0.05271754	          0.02069772	          0.01051403	          0.01000001	          0.00999999	          0.34763259	          0.00999999	          0.00999999	          0.01000000	          0.03743257	          0.00999999	          0.03403696	          0.04803755	          0.02573903	          0.01000000	          0.01000000	          0.02322832	          0.17732256	          0.21547309	          0.00999999	
          1.64768042	         -2.52124608	         -0.48270180	          5.40424362	          1.33239086	          0.99935521	         -0.00255498	         19.89966916	         -0.59549418	        -10.81738357	         -1.65346610	         -0.91682756	          0.17655644	        -10.29776704	         -3.37814853	        -14.58870513	        -16.26012353	          6.96583890	         31.42914679	        -12.58881272	         -1.52267341	         -6.69406593	          0.01000004	          0.13453767	          0.02982584	          0.09567311	          0.10472657	          0.05616634	          0.03259973	          0.03119229	          0.04162081	          0.01634098	          0.02209212	          0.01000000	          0.00999999	          0.36943865	          0.01000002	          0.00999999	          0.00999999	          0.02955324	          0.00999999	          0.04477720	          0.03792593	          0.02032112	          0.01000004	          0.01000001	          0.02125125	          0.13999721	          0.19073240	          0.00999999	
          1.66367732	         -2.58771591	         -0.57937378	          5.12768069	          1.34993479	          0.99937947	         -0.00065001	         19.16487827	         -0.31877186	        -11.27864758	         -1.92513961	         -1.36141591	          0.15141848	        -10.29551110	         -3.86832033	        -15.32079392	        -17.94610904	          5.65875337	         32.71528087	        -12.05908089	         -0.91121810	         -6.70924511	          0.01000000	          0.10621828	          0.02354768	          0.12004338	          0.08268228	          0.05445539	          0.02573769	          0.05808361	          0.03285988	          0.01290130	          0.01744188	          0.01000001	          0.01000000	          0.36700514	          0.03730079	          0.01000001	          0.01000000	          0.02333246	          0.01914637	          0.06412561	          0.02994275	          0.01604365	          0.01000000	          0.01000000	          0.02573822	          0.11052863	          0.15058436	          0.00999999	
          1.67967422	         -2.64040002	         -0.69585401	          4.83378422	          1.36712155	          1.00040294	          0.00129860	         18.48491476	         -0.02476015	        -11.61936078	         -2.33343295	         -1.51008865	          0.13284889	         -9.96089870	         -4.47301513	        -16.03256850	        -20.17357436	          4.10413517	         33.72334291	        -11.57925330	         -0.26580616	         -6.70081627	          0.01000001	          0.08385996	          0.01859103	          0.12827977	          0.07193212	          0.05825931	          0.02032007	          0.07087323	          0.02594307	          0.01018565	          0.01970369	          0.01000004	          0.01000004	          0.34682655	          0.05545172	          0.03411675	          0.00999999	          0.01842111	          0.01511618	          0.07070659	          0.02363998	          0.01266655	          0.01000000	          0.01000000	          0.02032048	          0.08726301	          0.11888724	          0.00999999	
          1.69567111	         -2.67791333	         -0.78690827	          4.53516669	          1.38386794	          1.00226661	          0.00328016	         17.82038597	          0.24306243	        -11.83091685	         -2.79333921	         -1.46432916	          0.12691429	         -9.26558926	         -5.16422360	        -16.73031456	        -22.98778000	          2.36579277	         34.22968286	        -11.15923291	          0.35092704	         -6.66789196	          0.01000003	          0.06620794	          0.01467773	          0.13154000	          0.06432458	          0.06299203	          0.01604283	          0.06312281	          0.02048221	          0.00999999	          0.02245490	          0.01000001	          0.01000000	          0.32039382	          0.04667717	          0.05471095	          0.00999999	          0.01454358	          0.01193433	          0.07534568	          0.01866392	          0.01000032	          0.01000002	          0.00999999	          0.01604314	          0.06889466	          0.09386218	          0.00999999	
          1.71166801	         -2.69777254	         -0.80525141	          4.24163810	          1.40015820	          1.00469363	          0.00527170	         17.13867167	          0.43521525	        -11.95470986	         -3.23801057	         -1.31646971	          0.13468150	         -8.20514370	         -5.91488130	        -17.47066823	        -26.42535911	          0.64258541	         33.81269338	        -10.80244958	          0.87858674	         -6.60751953	          0.01000003	          0.05227156	          0.01158816	          0.12282062	          0.06906346	          0.06942945	          0.01266593	          0.07473536	          0.01617082	          0.01000000	          0.03095017	          0.01000003	          0.01000002	          0.29334176	          0.03685191	          0.05623631	          0.01000000	          0.01148224	          0.05924058	          0.07997674	          0.01684761	          0.00999999	          0.01000004	          0.00999999	          0.01266615	          0.05439274	          0.07410475	          0.01972451	
          1.72766491	         -2.69780898	         -0.71017961	          3.95055360	          1.41602906	          1.00744808	          0.00723313	         16.38982493	          0.51496808	        -12.02535155	         -3.57995251	         -1.09542395	          0.17202504	         -6.80604426	         -6.69943347	        -18.26197702	        -30.47276590	         -0.92393665	         32.16672574	        -10.50409344	          1.27173819	         -6.51509298	          0.01000000	          0.04126870	          0.01000003	          0.10699323	          0.05452604	          0.07193344	          0.01000005	          0.10204369	          0.01276696	          0.00999999	          0.03712466	          0.01000000	          0.01000000	          0.26980934	          0.02909480	          0.05331629	          0.01951563	          0.00999999	          0.12943264	          0.07749476	          0.02938622	          0.00999999	          0.01000001	          0.00999999	          0.01000000	          0.04294339	          0.05850614	          0.06069730	
          1.74366180	         -2.67702989	         -0.48417462	          3.65225392	          1.43149177	          1.01032614	          0.00912002	         15.54414414	          0.46874371	        -12.03147899	         -3.75674060	         -0.85220662	          0.25800419	         -5.14491956	         -7.48032801	        -19.02415524	        -34.96329853	         -2.29066122	         29.22914831	        -10.26148600	          1.51366225	         -6.38556408	          0.01000001	          0.03258189	          0.01000000	          0.09130346	          0.04304864	          0.06796421	          0.01000004	          0.08112772	          0.01007959	          0.00999999	          0.04189870	          0.01000000	          0.01000000	          0.24829645	          0.03556904	          0.05848589	          0.08429207	          0.00999999	          0.12842134	          0.06554983	          0.03117812	          0.00999999	          0.01000005	          0.00999999	          0.00999999	          0.03390406	          0.04619094	          0.11225599	
          1.75965870	         -2.63548732	         -0.15623541	          3.33874715	          1.44647087	          1.01316084	          0.01093597	         14.64713985	          0.32125290	        -11.92807558	         -3.83709945	         -0.58287553	          0.39450902	         -3.32683938	         -8.21649353	        -19.59007876	        -39.61778387	         -3.38789334	         25.15704301	        -10.08557571	          1.63060700	         -6.21843049	          0.01000000	          0.02572359	          0.00999999	          0.07290474	          0.03398716	          0.06422162	          0.01000003	          0.07336541	          0.00999999	          0.01000000	          0.05459904	          0.01000000	          0.00999999	          0.23006433	          0.06534492	          0.08543867	          0.13558167	          0.01007575	          0.10138941	          0.05175198	          0.02461535	          0.01000001	          0.01000000	          0.01000000	          0.00999999	          0.02676746	          0.03646802	          0.18383868	
